PathFileType	4	(X/Y/Z)	 s09c0102.trc
DataRate	CameraRate	NumFrames	NumMarkers	Units	OrigDataRate	OrigDataStartFrame	OrigNumFrames
200	200	6	50	mm	200	501	2000
Frame#	Time	racr			lacr			c7			jug			rlel			rdr			llel			ldr			s2			lic			ric			lasi			rasi			rpsi			lpsi			rgt			lgt			rth1			rth2			rth3			rth4			rlfc			rmfc			rsh1			rsh2			rsh3			rsh4			rlmal			rmmal			rcal			rtoe			rmt5			lth1			lth2			lth4			lth3			llfc			lmfc			llmal			lmmal			lcal			lmt5			lsh1			lsh2			lsh3			lsh4			ltoe			SBIKE			LBIKE			RBIKE			
		X1	Y1	Z1	X2	Y2	Z2	X3	Y3	Z3	X4	Y4	Z4	X5	Y5	Z5	X6	Y6	Z6	X7	Y7	Z7	X8	Y8	Z8	X9	Y9	Z9	X10	Y10	Z10	X11	Y11	Z11	X12	Y12	Z12	X13	Y13	Z13	X14	Y14	Z14	X15	Y15	Z15	X16	Y16	Z16	X17	Y17	Z17	X18	Y18	Z18	X19	Y19	Z19	X20	Y20	Z20	X21	Y21	Z21	X22	Y22	Z22	X23	Y23	Z23	X24	Y24	Z24	X25	Y25	Z25	X26	Y26	Z26	X27	Y27	Z27	X28	Y28	Z28	X29	Y29	Z29	X30	Y30	Z30	X31	Y31	Z31	X32	Y32	Z32	X33	Y33	Z33	X34	Y34	Z34	X35	Y35	Z35	X36	Y36	Z36	X37	Y37	Z37	X38	Y38	Z38	X39	Y39	Z39	X40	Y40	Z40	X41	Y41	Z41	X42	Y42	Z42	X43	Y43	Z43	X44	Y44	Z44	X45	Y45	Z45	X46	Y46	Z46	X47	Y47	Z47	X48	Y48	Z48	X49	Y49	Z49	X50	Y50	Z50	
501	2.5050	483.128008	1236.174662	-30.630512	561.434650	1241.430450	-318.661354	500.213614	1275.234007	-172.756288	466.448205	1144.415608	-191.222738	468.458159	992.136431	47.500877	686.453402	887.764564	-26.747851	531.395964	1053.971325	-522.148642	693.737638	880.441950	-446.581110	8.780707	1140.411523	-257.086845	151.861902	1119.690131	-395.615994	142.282163	1146.834508	-102.287062	187.149001	1059.458047	-367.590332	187.328856	1100.606934	-117.602018	32.876194	1173.648371	-197.349404	43.681370	1172.815507	-307.345463	126.298370	1020.561407	-51.600710	114.235142	990.985431	-428.547706	248.549657	953.841864	-64.502291	333.375802	934.255605	-76.222466	394.104933	869.454079	-83.372702	347.400028	959.057671	-98.956831	467.321066	793.115822	-118.087826	451.135331	770.115915	-212.167430	422.666298	700.199815	-81.393392	412.653422	611.943152	-94.513431	361.978148	540.869419	-89.453466	434.541174	605.674309	-127.218623	327.227712	444.981118	-84.385812	323.348854	456.871198	-163.887039	251.232576	391.751891	-120.174929	510.558218	447.641059	-126.516259	436.171523	410.748709	-60.122956	204.120487	884.859406	-422.898113	271.930348	834.675626	-415.157505	300.412803	856.118828	-402.282141	307.736188	751.441454	-410.851083	336.446413	655.434894	-398.926596	349.111207	638.094008	-300.942748	111.671541	366.888976	-399.045279	136.723979	359.153923	-329.761959	40.858275	370.314791	-360.341142	148.247836	237.432106	-427.872374	275.362947	576.294213	-419.987315	242.514671	496.858983	-409.725032	171.622073	442.723915	-406.827604	263.982529	484.102189	-379.149660	232.668973	194.487543	-361.426993	-64.816183	853.015881	-238.395351	20.719662	84.979242	-441.908824	21.130027	84.061372	-43.719459	
502	2.5100	485.490737	1236.805645	-30.839043	561.626103	1241.276485	-319.396695	502.442718	1276.141616	-175.131330	468.785151	1145.211583	-193.104375	468.571750	992.160671	46.833507	686.272551	887.814489	-26.933265	530.132836	1053.128037	-521.958685	693.375766	880.371272	-446.810693	9.527158	1140.974920	-255.305938	151.735936	1120.786631	-394.562259	142.958267	1146.280924	-101.087009	187.104052	1060.392662	-366.979274	188.578686	1099.611885	-116.604235	33.901582	1173.872278	-195.501148	44.090551	1173.713983	-305.508820	127.490725	1019.453128	-50.974407	114.126211	992.585805	-428.082298	249.282449	951.952211	-63.788775	334.000635	931.709114	-75.570770	393.927797	866.282054	-82.903089	348.217141	956.432352	-98.215881	466.727978	789.644028	-117.752005	450.658569	766.900314	-211.810165	422.644181	696.566704	-81.123668	413.545998	608.181543	-94.311311	363.526700	536.632427	-89.384189	435.647916	602.198017	-127.003138	329.485411	440.374291	-84.454595	325.538700	452.311663	-163.925599	253.574463	387.116609	-120.179873	512.979379	442.924062	-126.501342	438.387262	406.102086	-60.071624	204.228437	886.715247	-422.922053	272.316556	836.706068	-415.676189	300.785851	858.263053	-402.999770	308.522695	753.654331	-411.680047	337.505851	657.624140	-399.843326	350.434917	640.060160	-301.778001	109.955126	371.517459	-399.114022	135.230519	363.679468	-329.896000	39.121374	375.288201	-360.369268	145.974425	241.912805	-427.812453	275.954616	579.066055	-420.664169	242.614044	500.068717	-410.567364	170.772096	446.642553	-407.068846	263.888592	487.227992	-379.736370	230.196656	198.642212	-361.337286	-64.798661	853.044710	-238.399871	20.726863	84.981982	-441.910322	21.131311	84.046759	-43.707974	
503	2.5150	487.994926	1237.175266	-31.349477	561.731930	1241.205834	-320.234286	504.544377	1276.887951	-177.249565	470.845821	1145.891833	-194.777067	468.579440	992.346437	46.258119	686.106495	887.885328	-27.109162	528.813583	1052.230962	-521.785062	693.076998	880.211394	-446.958331	10.150937	1141.450728	-253.534673	151.691919	1121.853730	-393.477368	144.391511	1145.758821	-99.048759	187.144099	1061.355579	-366.245321	189.739052	1098.597182	-115.459912	34.882166	1173.995927	-193.709563	44.484603	1174.446644	-303.736727	128.692574	1018.276947	-50.357897	113.971740	994.083439	-427.729875	249.555300	950.261083	-62.550723	334.412459	928.928635	-74.941185	393.733554	863.128484	-82.536493	348.981537	953.630873	-97.477471	466.103449	786.354941	-117.167023	450.028947	763.624394	-211.402589	422.558766	692.761535	-80.766510	414.205624	604.308613	-94.178140	364.922656	532.324426	-89.415765	436.481221	598.579975	-126.748753	331.614947	435.721729	-84.461427	327.737914	447.796847	-163.943059	255.869538	382.440469	-120.251209	515.379798	438.025060	-126.484301	440.671364	401.305143	-60.032706	204.372910	888.434953	-422.998312	272.748234	838.770435	-416.316711	301.193359	860.403805	-403.727421	309.346302	755.762591	-412.613204	338.893236	659.821145	-400.747602	351.499206	642.306870	-302.670610	108.385409	376.295603	-399.210282	133.693178	368.540428	-329.993345	37.560289	380.386306	-360.364555	143.868081	246.547872	-427.833274	276.690072	581.810053	-421.305586	242.505738	503.145573	-411.034941	170.069891	450.591325	-407.328568	263.703140	490.346203	-380.192153	227.954170	202.978971	-361.470037	-64.765146	853.034355	-238.367511	20.729073	84.986118	-441.909103	21.124389	84.065611	-43.719016	
504	2.5200	490.515392	1237.894250	-31.820594	561.718941	1241.275787	-321.451353	505.998719	1277.290563	-178.726151	472.215457	1146.200754	-195.503503	468.642842	992.559822	45.515107	685.962245	887.973985	-27.292409	527.449686	1051.361912	-521.804359	691.847121	879.163240	-446.237869	10.800708	1141.866682	-251.832394	151.760616	1122.869382	-392.419471	147.727869	1145.250292	-96.248508	187.347923	1062.339172	-365.455249	190.979453	1097.453066	-114.276144	35.898715	1174.022727	-192.002209	44.873854	1175.129190	-301.986551	129.865056	1017.146365	-49.771304	113.976565	995.496053	-427.299038	250.212800	948.184709	-61.867437	334.876994	926.174912	-74.266607	393.449803	860.119587	-82.233657	349.630675	950.935133	-96.846119	465.284743	783.045933	-116.526321	449.334416	760.320210	-210.983746	422.390489	688.902802	-80.380818	414.894478	600.453360	-93.872031	366.270957	528.020600	-89.330730	437.386168	595.040508	-126.534472	333.589786	431.084471	-84.437071	329.868595	443.136904	-163.966402	258.064746	377.818501	-120.370067	517.654100	433.073378	-126.549921	442.896914	396.409425	-60.128260	204.661631	890.150538	-422.979140	273.256159	840.762873	-416.947020	301.678806	862.553067	-404.496519	310.309594	758.011382	-413.635399	340.504818	662.025223	-401.627991	353.755753	644.395789	-303.469869	106.994020	381.085285	-399.271593	132.404923	373.276822	-330.056780	36.137000	385.482115	-360.321412	141.868965	251.266521	-427.734004	277.674570	584.520526	-421.906323	242.664521	506.603533	-411.579268	169.513845	454.588420	-407.574159	263.638901	493.260911	-380.638103	225.784414	207.317551	-361.351279	-64.754133	853.049543	-238.366104	20.736123	84.987628	-441.911921	21.135534	84.054552	-43.716373	
505	2.5250	493.136836	1238.406320	-32.486747	561.619299	1241.429675	-322.802407	507.124372	1277.347531	-179.558849	473.050767	1146.211053	-195.507550	468.665217	992.920853	44.839438	685.850150	888.044678	-27.462861	526.125930	1050.350520	-521.714882	691.571195	878.958038	-446.176960	11.590027	1142.236248	-250.214815	151.967647	1123.920127	-391.424304	149.213254	1144.632886	-94.740089	187.606787	1063.335248	-364.671415	192.300846	1096.615058	-113.304739	36.963229	1174.000713	-190.317578	45.295097	1175.771962	-300.318808	131.095717	1015.854198	-49.144395	114.008275	996.766014	-426.777889	250.819250	946.145396	-61.379463	335.214660	923.291801	-73.574757	393.086345	856.735605	-81.892584	350.158661	947.871225	-95.918799	464.433702	779.460178	-115.965973	448.608496	756.937264	-210.489869	422.164289	685.034345	-79.982471	415.494491	596.496662	-93.521362	367.474024	523.717249	-89.204340	438.135345	591.363060	-126.170092	335.397715	426.504323	-84.457753	331.807204	438.448146	-163.914963	259.958969	373.433817	-120.476770	519.789149	427.914844	-126.578466	444.916768	391.496670	-60.137365	204.972682	891.763994	-423.165712	273.861078	842.756346	-417.574158	302.224906	864.707829	-405.195593	311.442663	760.373949	-414.688555	342.271635	664.273600	-402.543503	355.567445	646.696280	-304.321849	105.754944	385.970283	-399.230478	131.109309	378.149524	-330.056129	34.915287	390.799640	-360.328437	140.033564	256.036688	-427.761643	278.571305	587.246310	-422.334825	242.456938	509.535588	-411.509927	169.154838	458.635029	-407.802376	263.424111	496.006617	-380.764780	223.742662	211.805750	-361.334058	-64.717203	853.066108	-238.360371	20.740191	84.999091	-441.911079	21.128875	84.053620	-43.707363	
506	2.5300	495.722320	1239.261392	-32.918068	561.421682	1241.671408	-324.421021	507.840668	1277.202683	-180.072863	473.508457	1145.995436	-195.013077	468.742693	993.301451	44.189836	685.800803	888.123623	-27.589725	524.776889	1049.347836	-521.781423	691.293995	878.751311	-446.108488	12.292930	1142.451868	-248.563309	152.376634	1125.254701	-390.577795	147.682831	1143.577563	-95.350235	187.888660	1064.304738	-363.850462	193.547825	1095.575414	-112.400527	38.040389	1173.948295	-188.550609	45.774766	1176.323828	-298.614054	132.285501	1014.755021	-48.673124	114.130443	997.984257	-426.255830	251.285469	944.116493	-60.752879	335.403586	920.405270	-72.947314	392.605517	853.472758	-81.413322	350.873717	944.545602	-96.070980	463.439753	775.947483	-115.372209	447.758822	753.422467	-210.066894	421.893022	681.082918	-79.534789	416.007996	592.472155	-93.266754	368.611082	519.408785	-89.093743	438.739117	587.655671	-125.927423	337.212738	421.791676	-84.452274	333.704829	434.054283	-163.741670	262.067488	368.650808	-120.570285	521.886628	422.627705	-126.563006	446.920527	386.270476	-60.202838	205.211798	893.413724	-423.611260	274.584587	844.802770	-418.199534	302.880436	866.759590	-405.815173	312.676157	762.509994	-415.767707	344.192835	666.378687	-403.516670	357.473450	649.202720	-305.161910	104.713977	390.992159	-399.324308	130.306394	383.068022	-330.154918	33.865119	396.162136	-360.284846	138.300727	260.987650	-427.694321	279.853716	590.104832	-422.979412	243.142014	512.795476	-412.209552	168.906642	462.767514	-408.026110	263.926331	499.445791	-381.325465	221.878554	216.364523	-361.265095	-64.684919	853.070865	-238.319438	20.746876	84.988784	-441.902812	21.143431	84.056616	-43.705109	
